<?xml version="1.0" standalone="no"?>
<!DOCTYPE svg PUBLIC "-//W3C//DTD SVG 20010904//EN"
 "http://www.w3.org/TR/2001/REC-SVG-20010904/DTD/svg10.dtd">
<svg version="1.0" xmlns="http://www.w3.org/2000/svg"
 width="416.000000pt" height="416.000000pt" viewBox="0 0 416.000000 416.000000"
 preserveAspectRatio="xMidYMid meet">
<metadata>
Created by potrace 1.11, written by Peter Selinger 2001-2013
</metadata>
<g transform="translate(0.000000,416.000000) scale(0.100000,-0.100000)"
fill="#000000" stroke="none">
<path d="M1295 3734 c-573 -143 -600 -157 -624 -311 -23 -154 -39 -94 350
-1331 393 -1249 373 -1196 485 -1304 62 -60 139 -106 246 -148 l77 -30 739 0
738 0 65 45 c54 39 70 57 101 118 33 65 37 80 38 151 0 70 -3 84 -31 133 -19
34 -56 74 -99 108 l-67 55 -679 0 -679 0 -38 148 c-20 81 -40 157 -43 170 l-6
22 503 1 504 0 26 32 26 32 -16 107 c-16 96 -21 111 -54 151 -20 25 -59 61
-86 81 l-49 36 -505 0 -505 0 -11 33 c-17 55 -343 1152 -345 1160 0 4 114 55
254 112 140 58 262 113 270 123 9 11 22 38 29 60 13 38 12 46 -8 99 -13 32
-28 74 -33 93 -7 23 -26 47 -52 66 -46 35 -135 74 -163 73 -10 0 -171 -39
-358 -85z"/>
</g>
</svg>
